<?xml version="1.0" encoding="utf-8"?>
<!-- Generator: Adobe Illustrator 19.0.0, SVG Export Plug-In . SVG Version: 6.00 Build 0)  -->
<svg version="1.1"
	 id="svg5241" xmlns:dc="http://purl.org/dc/elements/1.1/" xmlns:cc="http://creativecommons.org/ns#" xmlns:sodipodi="http://sodipodi.sourceforge.net/DTD/sodipodi-0.dtd" xmlns:inkscape="http://www.inkscape.org/namespaces/inkscape" xmlns:svg="http://www.w3.org/2000/svg" xmlns:rdf="http://www.w3.org/1999/02/22-rdf-syntax-ns#" inkscape:export-ydpi="90" inkscape:export-xdpi="90" inkscape:export-filename="/Users/anthony/dev/readthedocs/guidelines/assets/logo-wordmark-light.png" sodipodi:docname="logo-wordmark-light.svg" inkscape:version="0.48.5 r10040"
	 xmlns="http://www.w3.org/2000/svg" xmlns:xlink="http://www.w3.org/1999/xlink" x="0px" y="0px" viewBox="698.2 197 400 400"
	 style="enable-background:new 698.2 197 400 400;" xml:space="preserve">
<style type="text/css">
	.st0{fill:#FFFFFF;}
</style>
<path id="path3929-8" inkscape:connector-curvature="0" class="st0" d="M882.4,391.3c-4.2,0.6-7.1,4.4-6.5,8.5
	c0.4,3,2.6,5.5,5.5,6.3c0,0,18.5,6.1,50,8.7c25.3,2.1,54-1.8,54-1.8c4.2-0.1,7.5-3.6,7.4-7.8c-0.1-4.2-3.6-7.5-7.8-7.4
	c-0.5,0-1,0.1-1.5,0.2c0,0-28.1,3.5-50.9,1.6c-30.1-2.4-46.5-7.9-46.5-7.9C885,391.3,883.7,391.1,882.4,391.3z M882.4,353.6
	c-4.2,0.6-7.1,4.4-6.5,8.5c0.4,3,2.6,5.5,5.5,6.3c0,0,18.5,6.1,50,8.7c25.3,2.1,54-1.8,54-1.8c4.2-0.1,7.5-3.6,7.4-7.8
	c-0.1-4.2-3.6-7.5-7.8-7.4c-0.5,0-1,0.1-1.5,0.2c0,0-28.1,3.5-50.9,1.6c-30.1-2.4-46.5-7.9-46.5-7.9
	C885,353.6,883.7,353.4,882.4,353.6z M882.4,315.9c-4.2,0.6-7.1,4.4-6.5,8.5c0.4,3,2.6,5.5,5.5,6.3c0,0,18.5,6.1,50,8.7
	c25.3,2.1,54-1.8,54-1.8c4.2-0.1,7.5-3.6,7.4-7.8c-0.1-4.2-3.6-7.5-7.8-7.4c-0.5,0-1,0.1-1.5,0.2c0,0-28.1,3.5-50.9,1.6
	c-30.1-2.4-46.5-7.9-46.5-7.9C885,315.9,883.7,315.8,882.4,315.9z M882.4,278.3c-4.2,0.6-7.1,4.4-6.5,8.5c0.4,3,2.6,5.5,5.5,6.3
	c0,0,18.5,6.1,50,8.7c25.3,2.1,54-1.8,54-1.8c4.2-0.1,7.5-3.6,7.4-7.8c-0.1-4.2-3.6-7.5-7.8-7.4c-0.5,0-1,0.1-1.5,0.2
	c0,0-28.1,3.5-50.9,1.6c-30.1-2.4-46.5-7.9-46.5-7.9C885,278.2,883.7,278.1,882.4,278.3z M829.7,238.5
	c-39.6,0.3-54.3,12.5-54.3,12.5v295.7c0,0,14.4-12.4,60.8-10.5c46.4,1.9,55.9,18.2,112.9,19.3c57,1.1,71.3-8.8,71.3-8.8l0.8-301.4
	c0,0-25.6,7.3-75.6,7.7c-49.9,0.4-61.9-12.7-107.7-14.2C835,238.6,832.3,238.5,829.7,238.5z M862.8,257.8c0,0,24,7.9,68.3,10.1
	c37.5,1.9,75-3.7,75-3.7v267.9c0,0-19,10-66.5,6.6c-36.8-2.6-77.3-16.6-77.3-16.6L862.8,257.8z M839.7,264.8c4.2,0,7.7,3.4,7.7,7.7
	s-3.4,7.7-7.7,7.7c0,0-12.4,0.1-20,0.8c-12.7,1.3-21.4,5.9-21.4,5.9c-3.7,2-8.4,0.5-10.3-3.2c-2-3.7-0.5-8.4,3.2-10.3c0,0,0,0,0,0
	c0,0,11.3-6,27-7.5C827.2,264.9,839.7,264.8,839.7,264.8z M832.3,302.6c4.2-0.1,7.4,0,7.4,0c4.2,0.5,7.2,4.3,6.7,8.5
	c-0.4,3.5-3.2,6.3-6.7,6.7c0,0-12.4,0.1-20,0.8c-12.7,1.3-21.4,5.9-21.4,5.9c-3.7,2-8.4,0.5-10.3-3.2c-2-3.7-0.5-8.4,3.2-10.3
	c0,0,11.3-6,27-7.5C822.7,302.9,828,302.7,832.3,302.6z M839.7,340.2c4.2,0,7.7,3.4,7.7,7.7s-3.4,7.7-7.7,7.7c0,0-12.4-0.1-20,0.7
	c-12.7,1.3-21.4,5.9-21.4,5.9c-3.7,2-8.4,0.5-10.3-3.2c-2-3.7-0.5-8.4,3.2-10.3c0,0,11.3-6,27-7.5
	C827.2,340.1,839.7,340.2,839.7,340.2z"/>
</svg>
