<?xml version="1.0" encoding="UTF-8" standalone="no"?>
<svg
   viewBox="0 0 164 65.24968"
   version="1.1"
   id="svg6"
   sodipodi:docname="cloudflare-pages-logo.svg"
   width="164"
   height="65.24968"
   inkscape:version="1.3 (0e150ed6c4, 2023-07-21)"
   xmlns:inkscape="http://www.inkscape.org/namespaces/inkscape"
   xmlns:sodipodi="http://sodipodi.sourceforge.net/DTD/sodipodi-0.dtd"
   xmlns="http://www.w3.org/2000/svg"
   xmlns:svg="http://www.w3.org/2000/svg">
  <sodipodi:namedview
     id="namedview6"
     pagecolor="#ffffff"
     bordercolor="#000000"
     borderopacity="0.25"
     inkscape:showpageshadow="2"
     inkscape:pageopacity="0.0"
     inkscape:pagecheckerboard="0"
     inkscape:deskcolor="#d1d1d1"
     inkscape:zoom="6.7966766"
     inkscape:cx="55.688982"
     inkscape:cy="27.513447"
     inkscape:window-width="3440"
     inkscape:window-height="1389"
     inkscape:window-x="0"
     inkscape:window-y="27"
     inkscape:window-maximized="1"
     inkscape:current-layer="svg6" />
  <defs
     id="defs3">
    <linearGradient
       id="cloudflare-pages-logo-gradient"
       x1="76.764549"
       x2="22.745872"
       y1="1.1265953"
       y2="53.449963"
       gradientTransform="scale(0.80864959,1.2366296)"
       gradientUnits="userSpaceOnUse">
      <stop
         offset="0%"
         stop-color="#fbb743"
         id="stop1" />
      <stop
         offset="100%"
         stop-color="#f28333"
         id="stop2" />
      <stop
         offset="100%"
         stop-color="#ea6b00"
         id="stop3" />
    </linearGradient>
  </defs>
  <g
     id="g6"
     transform="matrix(1.0488616,0,0,1.0488616,-10.488616,-3.0207214)">
    <path
       fill="currentColor"
       d="M 75.94,54 V 30 h 9.47 c 5.44,0 8.6,3.36 8.6,8.13 0,4.8 -3.21,8.09 -8.73,8.09 H 81 V 54 H 75.93 Z M 81,42.15 h 3.45 c 2.9,0 4.32,-1.64 4.32,-4.02 0,-2.39 -1.42,-3.98 -4.35,-3.98 H 81 Z m 19.48,12.19 c -3.43,0 -5.98,-1.8 -5.98,-5.37 0,-4.02 3.2,-5.21 6.77,-5.54 3.12,-0.3 4.35,-0.46 4.35,-1.62 v -0.07 c 0,-1.47 -0.97,-2.33 -2.67,-2.33 -1.79,0 -2.86,0.88 -3.2,2.07 l -4.61,-0.37 c 0.69,-3.28 3.52,-5.34 7.84,-5.34 4,0 7.64,1.8 7.64,6.09 V 54 h -4.74 v -2.5 h -0.14 c -0.88,1.68 -2.6,2.84 -5.26,2.84 z m 1.43,-3.45 c 2.2,0 3.75,-1.44 3.75,-3.32 v -1.91 c -0.6,0.4 -2.38,0.65 -3.47,0.8 -1.76,0.25 -2.92,0.94 -2.92,2.35 0,1.37 1.1,2.08 2.64,2.08 z m 19.32,10.23 c -4.86,0 -7.63,-2.17 -8.23,-5.01 l 4.62,-0.62 c 0.4,1.09 1.52,2.05 3.72,2.05 2.17,0 3.75,-0.96 3.75,-3.43 v -3.3 h -0.2 c -0.66,1.5 -2.27,2.93 -5.14,2.93 -4.06,0 -7.3,-2.79 -7.3,-8.78 0,-6.12 3.34,-9.2 7.29,-9.2 3,0 4.47,1.8 5.14,3.26 h 0.19 V 36 h 4.96 v 18.18 c 0,4.6 -3.66,6.94 -8.8,6.94 z m 0.1,-11.13 c 2.4,0 3.79,-1.87 3.79,-5.05 0,-3.15 -1.36,-5.2 -3.79,-5.2 -2.47,0 -3.78,2.14 -3.78,5.2 0,3.1 1.33,5.05 3.78,5.05 z m 19.5,4.36 c -5.54,0 -8.93,-3.56 -8.93,-9.27 0,-5.55 3.44,-9.31 8.73,-9.31 4.76,0 8.46,3.02 8.46,9.14 v 1.37 h -12.25 c 0,2.7 1.58,4.35 4.08,4.35 1.66,0 2.95,-0.72 3.45,-2.1 l 4.62,0.31 c -0.7,3.34 -3.7,5.51 -8.16,5.51 z m -4,-11.17 h 7.57 a 3.55,3.55 0 0 0 -3.68,-3.69 3.8,3.8 0 0 0 -3.88,3.7 z m 29.12,-2.05 -4.57,0.28 c -0.25,-1.16 -1.28,-2.1 -3.01,-2.1 -1.55,0 -2.77,0.7 -2.76,1.78 0,0.86 0.61,1.44 2.29,1.8 l 3.26,0.66 c 3.49,0.71 5.19,2.27 5.2,4.87 -0.01,3.55 -3.35,5.93 -8.02,5.93 -4.77,0 -7.7,-2.12 -8.16,-5.56 l 4.9,-0.26 c 0.31,1.46 1.5,2.22 3.28,2.22 1.74,0 2.9,-0.76 2.92,-1.82 -0.02,-0.9 -0.73,-1.48 -2.3,-1.8 l -3.12,-0.62 c -3.52,-0.7 -5.22,-2.45 -5.2,-5.14 -0.02,-3.47 3.02,-5.6 7.62,-5.6 4.55,0 7.22,2.05 7.67,5.36 z"
       id="path3" />
    <path
       fill="currentColor"
       fill-opacity="0.6"
       d="m 84.14,17.86 h -2.02 c -0.15,-1.04 -0.94,-1.68 -2.03,-1.68 -1.47,0 -2.43,1.13 -2.43,3.1 0,2.01 0.98,3.08 2.41,3.08 1.07,0 1.86,-0.58 2.05,-1.6 l 2.02,0.02 c -0.21,1.74 -1.68,3.35 -4.1,3.35 -2.53,0 -4.4,-1.77 -4.4,-4.86 0,-3.09 1.9,-4.85 4.4,-4.85 2.19,0 3.84,1.25 4.1,3.44 z m 2.83,-3.31 V 24 H 85 v -9.45 z m 4.23,9.59 c -2.16,0 -3.5,-1.47 -3.5,-3.66 0,-2.2 1.34,-3.66 3.5,-3.66 2.15,0 3.49,1.46 3.49,3.66 0,2.19 -1.34,3.66 -3.5,3.66 z m 0,-1.52 c 0.98,0 1.49,-0.91 1.49,-2.15 0,-1.24 -0.51,-2.15 -1.49,-2.15 -0.99,0 -1.5,0.91 -1.5,2.15 0,1.24 0.51,2.15 1.5,2.15 z m 8.77,-1.64 v -4.07 h 1.97 V 24 h -1.89 v -1.29 h -0.07 c -0.32,0.83 -1.09,1.38 -2.15,1.38 -1.43,0 -2.4,-1 -2.4,-2.67 v -4.51 h 1.96 v 4.16 c 0,0.84 0.49,1.36 1.23,1.36 0.7,0 1.36,-0.5 1.35,-1.45 z m 5.6,3.14 c -1.6,0 -2.87,-1.28 -2.87,-3.66 0,-2.43 1.32,-3.64 2.87,-3.64 1.19,0 1.76,0.7 2.02,1.28 h 0.06 v -3.55 h 1.96 V 24 h -1.94 v -1.14 h -0.08 a 2.1,2.1 0 0 1 -2.01,1.26 z m 0.63,-1.57 c 0.95,0 1.5,-0.83 1.5,-2.1 0,-1.26 -0.54,-2.07 -1.5,-2.07 -0.97,0 -1.49,0.85 -1.49,2.07 0,1.24 0.53,2.1 1.5,2.1 z m 8.3,-5.64 v 1.48 h -1.42 V 24 h -1.96 v -5.61 h -1 V 16.9 h 1 v -0.51 c 0,-1.55 1,-2.3 2.32,-2.3 0.61,0 1.15,0.12 1.4,0.2 l -0.35,1.47 c -0.16,-0.05 -0.4,-0.1 -0.63,-0.1 -0.58,0 -0.78,0.28 -0.78,0.76 v 0.48 h 1.41 z m 2.62,-2.36 V 24 h -1.97 v -9.45 z m 3.04,9.58 c -1.35,0 -2.35,-0.7 -2.35,-2.11 0,-1.58 1.26,-2.05 2.66,-2.18 1.24,-0.12 1.72,-0.18 1.72,-0.64 v -0.03 c 0,-0.58 -0.38,-0.92 -1.05,-0.92 -0.7,0 -1.13,0.35 -1.26,0.82 l -1.82,-0.15 c 0.27,-1.3 1.39,-2.1 3.09,-2.1 1.58,0 3,0.7 3,2.4 V 24 h -1.86 v -0.98 h -0.05 c -0.35,0.66 -1.03,1.11 -2.08,1.11 z m 0.57,-1.35 c 0.86,0 1.47,-0.57 1.47,-1.31 v -0.76 c -0.23,0.16 -0.93,0.26 -1.36,0.32 -0.7,0.1 -1.15,0.37 -1.15,0.92 0,0.55 0.43,0.83 1.04,0.83 z m 4.41,1.22 v -7.1 h 1.9 v 1.25 h 0.08 c 0.26,-0.88 0.91,-1.34 1.7,-1.34 0.2,0 0.45,0.03 0.62,0.07 v 1.74 a 3.3,3.3 0 0 0 -0.83,-0.1 c -0.86,0 -1.5,0.6 -1.5,1.47 V 24 Z m 7.67,0.14 c -2.18,0 -3.52,-1.4 -3.52,-3.65 0,-2.2 1.36,-3.67 3.44,-3.67 1.88,0 3.34,1.19 3.34,3.6 v 0.54 h -4.83 c 0,1.06 0.62,1.71 1.6,1.71 0.66,0 1.17,-0.28 1.36,-0.82 l 1.82,0.12 c -0.27,1.31 -1.46,2.17 -3.2,2.17 z m -1.57,-4.4 h 2.97 c 0,-0.85 -0.6,-1.46 -1.45,-1.46 a 1.5,1.5 0 0 0 -1.52,1.46 z"
       id="path4" />
    <path
       fill="#b7bbbd"
       d="M 45.94,10 H 60 l 2,2 v 44 l -2,2 H 40.84 l 0.97,-1.5 H 59.38 L 60.5,55.38 V 12.62 L 59.38,11.5 H 47.26 l -1.43,7.39 H 44.3 L 45.67,11.43 45.95,10 Z M 12,58 10,56 V 12 l 2,-2 h 19.9 l -1.01,1.5 H 12.62 l -1.12,1.12 v 42.76 l 1.12,1.12 H 27.1 L 26.86,58 Z m 3,-5 h 8.5 l -0.3,1.5 H 14 L 13.5,54 v -9 l 1.5,3 z m 34,0 1.5,1.5 H 43 L 44,53 Z"
       id="path5" />
    <path
       fill="url(#cloudflare-pages-logo-gradient)"
       d="M 32.67,40 H 19 l -1.66,-3.12 23,-34 3.62,1.5 L 39.42,28 H 53 l 1.68,3.09 -22,34 -3.66,-1.4 z M 15.5,17 a 1.5,1.5 0 1 1 0,-3 1.5,1.5 0 0 1 0,3 z m 4,0 a 1.5,1.5 0 1 1 0,-3 1.5,1.5 0 0 1 0,3 z m 4,0 a 1.5,1.5 0 1 1 0,-3 1.5,1.5 0 0 1 0,3 z"
       id="path6"
       style="fill:url(#cloudflare-pages-logo-gradient)" />
  </g>
</svg>
