<?xml version="1.0" encoding="UTF-8" standalone="no"?>
<svg
   version="1.1"
   id="Calque_1"
   x="0"
   y="0"
   width="300"
   height="61.227531"
   xml:space="preserve"
   sodipodi:docname="gitbook-logo.svg"
   inkscape:version="1.3 (0e150ed6c4, 2023-07-21)"
   inkscape:export-filename="gitbook-logo.png"
   inkscape:export-xdpi="96"
   inkscape:export-ydpi="96"
   xmlns:inkscape="http://www.inkscape.org/namespaces/inkscape"
   xmlns:sodipodi="http://sodipodi.sourceforge.net/DTD/sodipodi-0.dtd"
   xmlns="http://www.w3.org/2000/svg"
   xmlns:svg="http://www.w3.org/2000/svg"><defs
     id="defs1" /><sodipodi:namedview
     id="namedview1"
     pagecolor="#ffffff"
     bordercolor="#000000"
     borderopacity="0.25"
     inkscape:showpageshadow="2"
     inkscape:pageopacity="0.0"
     inkscape:pagecheckerboard="0"
     inkscape:deskcolor="#d1d1d1"
     inkscape:clip-to-page="false"
     inkscape:zoom="6.1251657"
     inkscape:cx="136.56773"
     inkscape:cy="53.712833"
     inkscape:window-width="3440"
     inkscape:window-height="1389"
     inkscape:window-x="0"
     inkscape:window-y="27"
     inkscape:window-maximized="1"
     inkscape:current-layer="Calque_1" /><style
     id="style1">.st0{fill:#4285fd}</style><switch
     id="switch1"
     transform="matrix(3.0027757,0,0,3.0027757,-30.305322,-58.883495)"
     style="fill:#000000"><g
       id="g1"
       style="fill:#000000"><g
         id="Page-1_1_"
         style="fill:#000000"><g
           id="Desktop-HD"
           transform="translate(-82,-381)"
           style="fill:#000000"><g
             id="Page-1"
             transform="translate(81,381)"
             style="fill:#000000"><path
               id="Fill-1"
               class="st0"
               d="m 23.8,36.8 c 0.5,0 0.8,0.4 0.8,0.8 0,0.5 -0.4,0.8 -0.8,0.8 -0.5,0 -0.8,-0.4 -0.8,-0.8 0,-0.4 0.3,-0.8 0.8,-0.8 m 13.1,-5.1 c -0.5,0 -0.8,-0.4 -0.8,-0.8 0,-0.4 0.4,-0.8 0.8,-0.8 0.5,0 0.8,0.4 0.8,0.8 0,0.4 -0.4,0.8 -0.8,0.8 m 0,-3.4 c -1.4,0 -2.6,1.2 -2.6,2.6 0,0.3 0,0.6 0.1,0.8 l -8.5,4.5 c -0.5,-0.7 -1.3,-1.1 -2.1,-1.1 -1,0 -1.9,0.6 -2.3,1.4 l -7.6,-4 c -0.8,-0.4 -1.4,-1.8 -1.3,-3 0,-0.6 0.3,-1.1 0.6,-1.3 0.2,-0.1 0.5,-0.1 0.7,0 H 14 c 2,1.1 8.7,4.5 8.9,4.7 0.4,0.2 0.7,0.3 1.4,-0.1 L 38,25.7 c 0.2,-0.1 0.4,-0.3 0.4,-0.6 0,-0.4 -0.4,-0.6 -0.4,-0.6 -0.8,-0.4 -2,-0.9 -3.1,-1.5 -2.5,-1.2 -5.3,-2.5 -6.6,-3.1 -1.1,-0.6 -1.9,-0.1 -2.1,0 L 25.9,20 c -5.6,2.8 -13.1,6.5 -13.5,6.7 -0.8,0.5 -1.2,1.4 -1.3,2.5 -0.1,1.8 0.8,3.7 2.2,4.4 l 8.1,4.2 c 0.2,1.3 1.3,2.2 2.5,2.2 1.4,0 2.6,-1.1 2.6,-2.5 l 8.9,-4.8 c 0.5,0.4 1,0.5 1.6,0.5 1.4,0 2.6,-1.2 2.6,-2.6 -0.2,-1.2 -1.3,-2.3 -2.7,-2.3"
               style="fill:#000000" /><path
               id="Fill-4"
               class="st0"
               d="m 56.4,35.1 c -0.5,0.5 -1.2,1 -2.1,1.3 -0.9,0.3 -1.9,0.5 -3,0.5 -1.7,0 -3.1,-0.5 -4.1,-1.6 -1,-1 -1.6,-2.5 -1.6,-4.3 v -1.1 c 0,-1.3 0.2,-2.4 0.7,-3.3 0.5,-1 1.1,-1.7 1.9,-2.2 0.8,-0.5 1.8,-0.8 2.9,-0.8 1.6,0 2.9,0.4 3.8,1.1 0.9,0.7 1.4,1.8 1.6,3.3 h -3 C 53.4,27.3 53.2,26.8 52.8,26.5 52.4,26.2 51.9,26 51.3,26 c -0.8,0 -1.4,0.3 -1.8,1 -0.4,0.7 -0.6,1.6 -0.7,2.8 v 0.8 c 0,1.3 0.2,2.3 0.7,2.9 0.4,0.6 1.1,1 2.1,1 0.8,0 1.4,-0.2 1.8,-0.5 v -2 h -2.2 v -2.1 h 5.3 v 5.2 z"
               style="fill:#000000" /><path
               id="Fill-6"
               class="st0"
               d="m 58.2,36.7 h 3 v -9.6 h -3 z M 58.1,24.6 c 0,-0.4 0.2,-0.8 0.5,-1.1 0.3,-0.3 0.7,-0.4 1.2,-0.4 0.5,0 0.9,0.1 1.2,0.4 0.3,0.3 0.5,0.6 0.5,1.1 0,0.4 -0.2,0.8 -0.5,1.1 -0.3,0.3 -0.7,0.4 -1.2,0.4 -0.5,0 -0.9,-0.1 -1.2,-0.4 -0.4,-0.3 -0.5,-0.6 -0.5,-1.1 z"
               style="fill:#000000" /><path
               id="Fill-8"
               class="st0"
               d="m 66.6,24.7 v 2.4 h 1.6 v 2.1 h -1.6 v 4.4 c 0,0.4 0.1,0.6 0.2,0.8 0.1,0.1 0.4,0.2 0.8,0.2 0.3,0 0.5,0 0.7,-0.1 v 2.1 c -0.5,0.2 -1.1,0.3 -1.7,0.3 -1,0 -1.8,-0.2 -2.3,-0.7 C 63.8,35.7 63.6,35 63.6,34 v -4.8 h -1.2 v -2.1 h 1.2 v -2.4 z"
               style="fill:#000000" /><path
               id="Fill-9"
               class="st0"
               d="m 72.6,31.2 v 3.1 h 2 c 0.6,0 1,-0.1 1.3,-0.4 0.3,-0.3 0.5,-0.6 0.5,-1.1 0,-1.1 -0.5,-1.6 -1.6,-1.6 z m 0,-2 h 1.6 c 0.7,0 1.2,-0.1 1.5,-0.4 0.3,-0.2 0.4,-0.6 0.4,-1.1 0,-0.5 -0.2,-0.9 -0.5,-1.2 -0.3,-0.2 -0.8,-0.4 -1.5,-0.4 h -1.5 z m -3.1,7.5 V 23.8 h 4.7 c 1.7,0 2.9,0.3 3.8,0.9 0.9,0.6 1.3,1.5 1.3,2.7 0,0.7 -0.2,1.2 -0.5,1.7 -0.3,0.5 -0.8,0.8 -1.4,1 0.7,0.2 1.2,0.5 1.6,1 0.4,0.5 0.5,1.1 0.5,1.8 0,1.3 -0.4,2.2 -1.2,2.9 -0.8,0.6 -2,1 -3.6,1 z"
               style="fill:#000000" /><path
               id="Fill-10"
               class="st0"
               d="m 83.7,32 c 0,0.9 0.1,1.5 0.4,2 0.3,0.4 0.7,0.6 1.2,0.6 1.1,0 1.6,-0.8 1.6,-2.5 v -0.3 c 0,-1.7 -0.6,-2.6 -1.7,-2.6 -1,0 -1.5,0.7 -1.6,2.2 z m -3,-0.2 c 0,-1 0.2,-1.8 0.6,-2.6 0.4,-0.7 0.9,-1.3 1.6,-1.7 0.7,-0.4 1.5,-0.6 2.5,-0.6 1.4,0 2.6,0.4 3.4,1.3 0.8,0.9 1.2,2.1 1.2,3.6 V 32 c 0,1.5 -0.4,2.7 -1.3,3.6 -0.8,0.9 -2,1.3 -3.4,1.3 -1.4,0 -2.5,-0.4 -3.3,-1.2 -0.8,-0.8 -1.3,-1.9 -1.3,-3.3 z"
               style="fill:#000000" /><path
               id="Fill-11"
               class="st0"
               d="m 94,32 c 0,0.9 0.1,1.5 0.4,2 0.3,0.4 0.7,0.6 1.2,0.6 1.1,0 1.6,-0.8 1.6,-2.5 v -0.3 c 0,-1.7 -0.6,-2.6 -1.7,-2.6 -1,0 -1.5,0.7 -1.6,2.2 z m -3,-0.2 c 0,-1 0.2,-1.8 0.6,-2.6 0.4,-0.7 0.9,-1.3 1.6,-1.7 0.7,-0.4 1.5,-0.6 2.5,-0.6 1.4,0 2.6,0.4 3.4,1.3 0.8,0.9 1.2,2.1 1.2,3.6 V 32 c 0,1.5 -0.4,2.7 -1.3,3.6 -0.8,0.9 -2,1.3 -3.4,1.3 -1.4,0 -2.5,-0.4 -3.3,-1.2 C 91.5,34.9 91,33.8 91,32.4 Z"
               style="fill:#000000" /><path
               id="Fill-12"
               class="st0"
               d="m 105.5,33.2 -0.9,0.8 v 2.7 h -3 V 23.1 h 3 v 7.2 l 0.3,-0.4 2.3,-2.8 h 3.6 l -3.4,4 3.6,5.6 h -3.4 z"
               style="fill:#000000" /></g></g></g></g></switch></svg>
