<?xml version="1.0" encoding="UTF-8"?>
<svg id="svg5241" enable-background="new 2537 -969.1 1200 630" version="1.1" viewBox="2537 -969.1 1200 630" xml:space="preserve" xmlns="http://www.w3.org/2000/svg">
<style id="style2" type="text/css">
	.st0{fill:#32322A;}
</style>
<g id="g18">
	<g id="g3857" transform="matrix(.55754 0 0 .55754 68.308 1050.1)">
		<path id="path3929-8" class="st0" d="m5482.4-3211.6c-5.7 0.7-9.8 6-8.9 11.8 0.5 4.2 3.6 7.6 7.6 8.7 0 0 25.5 8.4 68.7 11.9 34.8 2.8 74.2-2.4 74.2-2.4 5.8-0.2 10.4-5 10.1-10.8-0.2-5.8-5-10.4-10.8-10.1-0.7 0-1.3 0.1-2 0.3 0 0-38.6 4.8-69.9 2.2-41.3-3.4-63.8-11-63.8-11-1.8-0.6-3.5-0.8-5.2-0.6zm0-51.7c-5.7 0.7-9.8 6-8.9 11.8 0.5 4.2 3.6 7.6 7.6 8.7 0 0 25.5 8.4 68.7 11.9 34.8 2.8 74.2-2.4 74.2-2.4 5.8-0.2 10.4-5 10.1-10.8-0.2-5.8-5-10.4-10.8-10.1-0.7 0-1.3 0.1-2 0.3 0 0-38.6 4.8-69.9 2.2-41.3-3.4-63.8-11-63.8-11-1.8-0.6-3.5-0.8-5.2-0.6zm0-51.8c-5.7 0.7-9.8 6-8.9 11.8 0.5 4.2 3.6 7.6 7.6 8.7 0 0 25.5 8.4 68.7 11.9 34.8 2.8 74.2-2.4 74.2-2.4 5.8-0.2 10.4-5 10.1-10.8-0.2-5.8-5-10.4-10.8-10.1-0.7 0-1.3 0.1-2 0.3 0 0-38.6 4.8-69.9 2.2-41.3-3.4-63.8-11-63.8-11-1.8-0.6-3.5-0.8-5.2-0.6zm0-51.7c-5.7 0.7-9.8 6-8.9 11.8 0.5 4.2 3.6 7.6 7.6 8.7 0 0 25.5 8.4 68.7 11.9 34.8 2.8 74.2-2.4 74.2-2.4 5.8-0.2 10.4-5 10.1-10.8-0.2-5.8-5-10.4-10.8-10.1-0.7 0-1.3 0.1-2 0.3 0 0-38.6 4.8-69.9 2.2-41.3-3.4-63.8-11-63.8-11-1.8-0.6-3.5-0.8-5.2-0.6zm-72.5-54.5c-54.4 0.4-74.6 17.2-74.6 17.2v406.1s19.8-17.1 83.4-14.5c63.7 2.6 76.8 25 155.1 26.5s97.9-12.1 97.9-12.1l1.1-414s-35.2 9.9-103.7 10.6c-68.5 0.6-85-17.5-148-19.6-3.9-0.2-7.7-0.2-11.2-0.2zm45.5 26.4s33 10.9 93.8 13.9c51.5 2.5 103-5.1 103-5.1v367.9s-26.1 13.7-91.3 9c-50.5-3.7-106.3-22.7-106.3-22.7l0.8-363zm-31.8 9.6c5.8 0 10.6 4.7 10.6 10.6 0 5.8-4.7 10.6-10.6 10.6 0 0-17.1 0.1-27.4 1.1-17.5 1.7-29.3 8.1-29.3 8.1-5.2 2.7-11.5 0.7-14.2-4.4-2.7-5.2-0.7-11.5 4.4-14.2 0 0 15.4-8.2 37-10.4 12.4-1.3 29.5-1.4 29.5-1.4zm-10.2 51.9c5.8-0.1 10.1 0 10.1 0 5.8 0.7 9.8 5.9 9.1 11.7-0.6 4.8-4.4 8.6-9.1 9.1 0 0-17.1 0.1-27.4 1.1-17.5 1.7-29.3 8.1-29.3 8.1-5.2 2.7-11.5 0.7-14.2-4.5s-0.7-11.5 4.4-14.2c0 0 15.4-8.2 37-10.4 6.3-0.3 13.7-0.8 19.4-0.9zm10.2 51.7c5.8 0 10.6 4.7 10.6 10.6 0 5.8-4.7 10.6-10.6 10.6 0 0-17.1-0.1-27.4 0.9-17.5 1.7-29.3 8.1-29.3 8.1-5.2 2.7-11.5 0.7-14.2-4.5s-0.7-11.5 4.5-14.2c0 0 15.4-8.2 37-10.4 12.3-1.2 29.4-1.1 29.4-1.1z"/>
	</g>
	<g id="text5298_1_">
		<path id="path3068_1_" class="st0" d="m2722-453.1v-12.2l5-0.4c2.9-0.3 4.4-1.7 4.4-4.2v-69.6l-8.5-0.4v-12.7h40.9c11.6 0 20.5 2.1 26.7 6.4s9.2 11.4 9.2 21.1c0 6.8-1.8 12.4-5.4 16.7-3.5 4.4-7.7 7.6-12.6 9.5 3.6 1.3 6.4 4.4 8.5 9.1l10.8 23.5 8.5 0.3v12.7h-37v-12.2l4.4-0.4c2.3-0.3 3.5-1.2 3.5-2.7 0-0.6-0.2-1.3-0.6-2.1l-7-15c-1.1-2.5-2.3-4.3-3.7-5.3-1.3-1.1-3.1-1.6-5.7-1.6h-13.6v26.1l9.8 0.4v12.9h-37.6m27.5-53.3h13c12.3 0 18.4-5.5 18.4-16.4 0-6.3-1.6-10.4-5-12.3-3.1-1.9-8.4-2.8-15.5-2.8h-11v31.6"/>
		<path id="path3070_1_" class="st0" d="m2848-530.6c7.5 0 13.4 1.8 17.9 5.6 4.4 3.6 6.6 8.7 6.6 15.2 0 4.4-0.9 8.3-2.8 11.7-1.9 3.3-4.3 5.9-7 7.8-2.8 1.9-6.2 3.5-10.1 4.7-6.7 2-14.2 3-22.6 3 0.3 5.3 1.9 9.5 5 12.9 3 3.1 7.6 4.8 13.8 4.8s12.4-2.2 18.6-6.6l5.7 12.2c-2 1.8-5.4 3.7-10.1 5.6s-10 2.8-16.1 2.8c-12.2 0-21.1-3.4-26.8-10-5.7-6.8-8.5-16-8.5-27.8s3.3-21.6 9.8-29.6c5.9-8.2 14.9-12.3 26.6-12.3m-6.9 34.3c3.7-0.7 7.1-2.1 10.1-4.4s4.7-5 4.7-8.1c0-6.1-3-9.1-9-9.1-5.6 0-9.8 2.2-12.9 6.7-3 4.4-4.7 9.6-5 15.8 4.5 0 8.5-0.3 12.1-0.9"/>
		<path id="path3072_1_" class="st0" d="m2944.2-525.3v55.7c0 1.6 0.2 2.7 0.7 3.3 0.6 0.6 1.6 0.9 3 1l4.8 0.3v12h-23.8v-8.7l-0.4-0.1c-5 7.2-11.9 10.8-20.5 10.8-10.1 0-17.8-3.3-22.6-9.8s-7.3-15.3-7.3-26.7c0-13.6 3.3-24.2 9.8-31.8 6.6-7.6 16.4-11.4 29.6-11.4 8.5 0.1 17.3 1.8 26.7 5.4m-17.4 48.5v-38.8c-2.8-1.3-6.6-1.9-11.6-1.9-6.7 0-11.6 2.7-14.5 8.1-3 5.4-4.5 12.5-4.5 21.4 0 16.1 5.2 24.3 15.5 24.3 4.4 0 8-1.3 10.8-3.9 2.9-2.8 4.3-5.9 4.3-9.2"/>
		<path id="path3074_1_" class="st0" d="m2992.2-530.6c4.3 0 8.4 0.6 12.3 1.8v-15.1c0-2.2-1.3-3.4-3.9-3.6l-6.4-0.4v-11.9h27.8v91c0.1 2.3 1.3 3.5 3.7 3.5l5.3 0.3v11.9h-24.3v-8.8l-0.4-0.1c-4.5 7.3-11.3 11-20.4 11-11.4 0-19.4-3.7-24-11.4-4.2-6.9-6.3-15.3-6.3-25.3 0-13 3.1-23.3 9.5-31.2 6.6-7.7 15.6-11.7 27.1-11.7m12.3 54.2v-38.8c-3.6-1.6-7.4-2.4-11.4-2.4-6.6 0-11.5 2.6-14.5 7.9s-4.5 12.1-4.5 20.2c0 16.7 5.4 25.2 16.1 25.2 4.1 0 7.5-1.1 10.1-3.5 2.7-2.3 4.2-5.2 4.2-8.6"/>
		<path id="path3076_1_" class="st0" d="m3089.3-464.8s-6.9 2.6-10.7 2.6-5.1-1.8-5.1-6.6c0-2.1 0.3-4.9 0.8-8.2l5.7-35h18.1l1.5-9.8h-18.1l3.1-19.1-13 2.6-2.6 16.5-13.1 1.3-1.4 8.5h13l-5.8 36.3c-0.5 3-0.8 5.9-0.8 8.4 0 10.4 4.4 15.6 13.2 15.6 7.3 0 17.2-6 17.2-6l-2-7.1"/>
		<path id="path3078_1_" class="st0" d="m3130-554-24 0.6-1.2 7.2 11 2.6-14.4 90.4h12.5l4.4-23.5s10.4-36 27.4-36c5.3 0 6.8 3.7 6.8 8.6 0 1.8-0.3 3.7-0.5 5.8l-7.5 45.2 24-1.3 1.2-7.2-11-1.9 5.9-36.6c0.4-2.7 0.6-5.4 0.6-7.7 0-9.4-3.7-15.8-14.3-15.8-19.9 0-30.3 25.3-30.9 26.7l10-57.1"/>
		<path id="path3080_1_" class="st0" d="m3224.1-468.1s-11.9 5.9-21.5 5.9c-9.8 0-14.4-4.4-14.4-13.6 0-1.7 0.1-3.7 0.4-5.7 27.1 0 46-10.2 46-25.3 0-10.4-8.4-17.1-21.6-17.1-20.8 0-37.9 21.3-37.9 48.5 0 14.4 9.1 23.5 23.5 23.5 15.4 0 29.3-9.8 29.3-9.8l-3.8-6.4m-34.3-22.5c3.5-13.8 13-23.3 22.5-23.3 6.7 0 9.8 2.7 9.8 8.5 0.1 8.6-13.7 14.8-32.3 14.8"/>
		<path id="path3082_1_" class="st0" d="m3256.7-453.1v-12.2l5-0.4c2.9-0.3 4.4-1.7 4.4-4.2v-69.6l-8.5-0.4v-12.7h41c14.7 0 26.1 3.9 34.3 11.7 8.3 7.8 12.4 19.3 12.4 34.6 0 9.4-1.2 17.8-3.7 24.9-2.5 7-5.9 12.5-10.1 16.4-8.6 8-19.3 12-32.1 12l-42.7-0.1m27.5-85v70.6h15.2c8.6 0 15.2-3 20.1-9.2 4.8-6.2 7.2-15.1 7.2-27 0-22.9-9.8-34.4-29.2-34.4h-13.3"/>
		<path id="path3084_1_" class="st0" d="m3387.6-463.9c10.9 0 16.3-8.8 16.3-26.4 0-8.9-1.2-15.6-3.7-20.2-2.4-4.6-6.5-6.9-12.3-6.9-5.7 0-9.8 2.2-12.6 6.6-2.7 4.4-4.1 10.4-4.1 18 0 14.1 2.6 22.9 7.8 26.5 2.3 1.6 5.1 2.4 8.6 2.4m-34.5-26.8c0-7.4 1.1-13.8 3.3-19.2 2.2-5.5 5.2-9.6 8.8-12.6 7.1-5.4 14.9-8.1 23.5-8.1 6 0 11.1 1 15.1 3 4.2 1.9 7.4 4.2 9.8 6.7s4.4 6.2 6 11.1c1.7 4.8 2.5 10.5 2.5 17.1 0 13.8-3.4 24.3-10 31.3-6.7 7.1-15.2 10.7-25.8 10.7-10.4 0-18.5-3.4-24.4-10-5.9-6.9-8.8-16.9-8.8-30"/>
		<path id="path3086_1_" class="st0" d="m3447.5-491.5c0 8.5 1.6 15.1 4.8 19.8s7.8 7 13.8 7c6.1 0 12.1-2.1 18-6.4l6.4 11.6c-7.1 5.8-15.9 8.7-26.7 8.7s-19.1-3.4-25.3-10c-6.1-6.8-9.1-16.7-9.1-29.9s3.5-23 10.5-29.6c7.1-6.7 15-10 23.8-10 8.9 0 17.2 2 24.7 6.1v19.5l-13.8 1v-7.2c0-2.7-1-4.4-3-5-1.9-0.7-3.9-1-6-1-12.1-0.2-18.1 8.3-18.1 25.4"/>
		<path id="path3088_1_" class="st0" d="m3533.1-517c-2.4-0.9-5.3-1.3-8.7-1.3-3.5 0-6.1 0.8-8.2 2.4-2 1.5-3 3.4-3 5.7 0 2.2 0.3 4 1 5.3 0.8 1.2 2 2.2 3.6 3.1 2.5 1.3 5.5 2.4 9 3.5 3.5 0.9 6.1 1.6 7.8 2.2 1.7 0.5 3.7 1.4 6.3 2.7s4.6 2.7 5.9 4.2c3.5 3.7 5.3 8.4 5.3 14.2 0 7.5-2.7 13.4-8.2 17.7-5.4 4.2-12.3 6.3-20.7 6.3-12.2 0-21.3-1.5-27.5-4.7v-20.8l13.5-1v7.2c0 4.4 4.2 6.6 12.6 6.6s12.6-3 12.6-9.1c0-2.2-0.7-4-2.2-5.4-1.4-1.4-2.8-2.3-4.2-2.8s-3-1-5.1-1.5c-1.9-0.5-3.7-1-5.7-1.5-1.8-0.5-3.7-1.1-6-1.9-2.1-0.9-4.5-2.1-7-3.7-5.1-3.3-7.6-8.8-7.6-16.4 0-7.8 2.7-13.8 8.2-18s12.4-6.3 20.7-6.3c8.4 0 16.6 2 24.9 6v18l-13.5 1v-6.3c-0.3-2.8-1.4-4.5-3.8-5.4"/>
	</g>
</g>
</svg>
