<svg width="200" height="35" viewBox="0 0 200 35" fill="none" xmlns="http://www.w3.org/2000/svg">
<g clip-path="url(#clip0_286_30497)">
<path d="M78.9968 6.43132C72.6564 6.43132 68.1562 10.8903 68.1562 17.108C68.1562 23.6122 73.1064 27.7437 79.4058 27.7437C82.3743 27.7437 86.2846 26.789 88.4564 24.0982C88.6799 23.8213 88.6674 23.4223 88.4137 23.1727L86.3586 21.149C86.0981 20.8925 85.6764 20.885 85.4167 21.1423C83.7399 22.8037 81.6004 23.4483 79.6509 23.4483C76.6239 23.4483 74.0874 21.7712 73.7606 18.3762H89.0519C89.2206 18.3762 89.3669 18.2532 89.3891 18.0858C89.4419 17.6875 89.4684 17.2737 89.4684 16.7803C89.4684 13.6718 88.3639 11.1353 86.4819 9.29499C84.6416 7.45399 82.0236 6.43115 78.9966 6.43115L78.9968 6.43132ZM73.8012 14.9807C74.1699 12.24 76.0924 10.5628 78.8741 10.5628C80.3464 10.5628 81.6148 11.054 82.5143 11.9948C83.2098 12.7718 83.7414 13.7537 83.9051 14.9807H73.8011H73.8012Z" fill="#018EF5"/>
<path d="M197.013 9.29499C195.173 7.45399 192.555 6.43115 189.528 6.43115C183.188 6.43115 178.688 10.8902 178.688 17.1078C178.688 23.612 183.638 27.7435 189.937 27.7435C192.906 27.7435 196.816 26.7888 198.988 24.098C199.211 23.821 199.199 23.4222 198.945 23.1725L196.89 21.1488C196.629 20.8923 196.208 20.8848 195.948 21.1422C194.271 22.8035 192.132 23.4482 190.182 23.4482C187.155 23.4482 184.619 21.771 184.292 18.376H199.583C199.752 18.376 199.898 18.253 199.921 18.0857C199.973 17.6873 200 17.2735 200 16.7803C200 13.6718 198.895 11.1353 197.013 9.29499ZM184.332 14.9803C184.701 12.2397 186.624 10.5625 189.405 10.5625C190.878 10.5625 192.146 11.0537 193.046 11.9945C193.741 12.7715 194.273 13.7533 194.436 14.9803H184.332Z" fill="#018EF5"/>
<path d="M115.053 23.0703C115.054 23.0615 115.053 23.0525 115.055 23.0437H113.995V13.626V7.72982C113.995 7.26115 113.615 6.88132 113.147 6.88132H110.009C109.541 6.88132 109.161 7.26132 109.161 7.72982V9.20615C107.362 7.49249 104.952 6.43115 102.174 6.43115C96.0374 6.43115 91.7422 11.0128 91.7422 17.1078C91.7422 23.1207 95.997 27.7435 102.174 27.7435C105.323 27.7435 107.736 26.4343 109.454 24.4717V25.298C109.454 26.4228 110.366 27.3345 111.491 27.3345H114.921C115.39 27.3345 115.77 26.9545 115.77 26.486V23.8925C115.77 23.4705 115.456 23.1358 115.053 23.0703ZM103.073 22.9575C99.7192 22.9575 97.3054 20.38 97.3054 17.1077C97.3054 13.7943 99.7192 11.2175 103.073 11.2175C106.1 11.2175 108.759 13.3442 108.759 17.1077C108.759 20.8302 106.1 22.9575 103.073 22.9575Z" fill="#018EF5"/>
<path d="M177.177 23.0438H175.649V15.1853C175.649 9.94932 172.336 6.43115 167.263 6.43115C164.195 6.43115 161.823 7.69932 160.227 9.58149C158.837 7.57682 156.587 6.43115 153.682 6.43115C150.778 6.43115 148.618 7.67482 147.186 9.52382V7.68932C147.186 7.22065 146.806 6.84082 146.337 6.84082H143.2C142.731 6.84082 142.352 7.22065 142.352 7.68932V25.7443C142.352 26.6225 143.063 27.3343 143.942 27.3343H149.563C150.032 27.3343 150.412 26.9545 150.412 26.4858V23.8923C150.412 23.4237 150.032 23.0438 149.563 23.0438H148.038V15.6355C148.038 12.9765 149.755 11.2992 152.251 11.2992C154.705 11.2992 156.137 12.9763 156.137 15.6355V25.7443C156.137 26.6225 156.849 27.3343 157.727 27.3343H162.753C163.219 27.3343 163.598 26.9563 163.598 26.4898V23.8882C163.598 23.4218 163.219 23.0437 162.753 23.0437H161.823V15.6353C161.823 12.9763 163.582 11.299 166.036 11.299C168.49 11.299 169.963 12.9762 169.963 15.6353V23.0437L169.965 25.1642V25.7442C169.965 26.6223 170.677 27.3342 171.555 27.3342H177.177C177.646 27.3342 178.026 26.9543 178.026 26.4857V23.8922C178.026 23.4235 177.646 23.0437 177.177 23.0437L177.177 23.0438Z" fill="#018EF5"/>
<path d="M137.13 0.00390625H132.558C132.089 0.00390625 131.709 0.383906 131.709 0.852406V3.44591C131.709 3.91457 132.089 4.29441 132.558 4.29441H132.8C132.8 4.29591 132.8 4.29741 132.8 4.29907H133.481V8.47707C131.804 7.20891 129.718 6.43124 127.345 6.43124C121.209 6.43124 116.914 11.0129 116.914 17.1079C116.914 23.1207 121.168 27.7436 127.345 27.7436C130.321 27.7436 132.632 26.5664 134.328 24.7812V26.4859C134.328 26.9546 134.708 27.3344 135.177 27.3344H138.314C138.783 27.3344 139.162 26.9546 139.162 26.4859V23.6344C139.164 23.6344 139.165 23.6337 139.166 23.6336V2.04041C139.166 0.915573 138.255 0.00390625 137.13 0.00390625ZM128.245 22.9579C124.891 22.9579 122.477 20.3804 122.477 17.1081C122.477 13.7947 124.891 11.2179 128.245 11.2179C131.272 11.2179 133.93 13.3446 133.93 17.1081C133.93 20.8306 131.272 22.9579 128.245 22.9579Z" fill="#018EF5"/>
<path d="M37.5777 4.92399H27.6483C24.1598 4.92399 21.2465 7.36649 20.5118 10.6332C19.7773 7.36649 16.8642 4.92399 13.3755 4.92399H3.44617C1.54283 4.92399 0 6.46683 0 8.36999V25.8415C0 27.7448 1.54283 29.2877 3.44617 29.2877H10.0348C10.0348 29.2877 10.035 29.2878 10.0352 29.2878C16.9067 29.3088 19.1597 30.9225 20.2455 34.2203C20.2902 34.3222 20.3937 34.3962 20.512 34.3962C20.6308 34.3962 20.7338 34.323 20.7782 34.2203C21.8637 30.9225 24.1172 29.3088 30.9885 29.2878C30.9887 29.2878 30.9887 29.2877 30.9888 29.2877H37.5778C39.4812 29.2877 41.024 27.7448 41.024 25.8415V8.36999C41.024 6.46683 39.4812 4.92383 37.5778 4.92383L37.5777 4.92399ZM17.2135 23.6395C17.2135 23.8427 17.0488 24.0073 16.8457 24.0073H5.623C5.41983 24.0073 5.25517 23.8427 5.25517 23.6395V22.2428C5.25517 22.0397 5.41983 21.875 5.623 21.875H16.8457C17.0488 21.875 17.2135 22.0397 17.2135 22.2428V23.6395ZM17.2135 19.2923C17.2135 19.4955 17.0488 19.6602 16.8457 19.6602H5.623C5.41983 19.6602 5.25517 19.4955 5.25517 19.2923V17.8957C5.25517 17.6925 5.41983 17.5278 5.623 17.5278H16.8457C17.0488 17.5278 17.2135 17.6925 17.2135 17.8957V19.2923ZM17.2135 14.9452C17.2135 15.1483 17.0488 15.313 16.8457 15.313H5.623C5.41983 15.313 5.25517 15.1483 5.25517 14.9452V13.5485C5.25517 13.3453 5.41983 13.1807 5.623 13.1807H16.8457C17.0488 13.1807 17.2135 13.3453 17.2135 13.5485V14.9452ZM35.7685 23.6395C35.7685 23.8427 35.6038 24.0073 35.4007 24.0073H24.1783C23.9752 24.0073 23.8105 23.8427 23.8105 23.6395V22.2428C23.8105 22.0397 23.9752 21.875 24.1783 21.875H35.4007C35.6038 21.875 35.7685 22.0397 35.7685 22.2428V23.6395ZM35.7685 19.2923C35.7685 19.4955 35.6038 19.6602 35.4007 19.6602H24.1783C23.9752 19.6602 23.8105 19.4955 23.8105 19.2923V17.8957C23.8105 17.6925 23.9752 17.5278 24.1783 17.5278H35.4007C35.6038 17.5278 35.7685 17.6925 35.7685 17.8957V19.2923ZM35.7685 14.9452C35.7685 15.1483 35.6038 15.313 35.4007 15.313H24.1783C23.9752 15.313 23.8105 15.1483 23.8105 14.9452V13.5485C23.8105 13.3453 23.9752 13.1807 24.1783 13.1807H35.4007C35.6038 13.1807 35.7685 13.3453 35.7685 13.5485V14.9452Z" fill="#018EF5"/>
<path d="M69.0085 7.48575C68.3437 7.03792 66.7812 6.28226 63.9405 6.43126C61.3663 6.56626 59.3588 7.78159 58.009 9.94942V9.54042C58.009 9.53492 58.0083 9.53059 58.0083 9.52525V8.91725C58.0083 7.79242 57.0965 6.88059 55.9717 6.88059H51.536C51.0673 6.88059 50.6875 7.26042 50.6875 7.72909V10.4089C50.6875 10.8776 51.0675 11.2574 51.536 11.2574H52.3182C52.3182 11.2574 51.9883 11.2578 51.988 11.2579H52.445C52.445 11.2579 52.4457 11.2583 52.446 11.2583H53.386V23.0438H51.862C51.3978 23.0438 51.0217 23.4201 51.0217 23.8841V26.4941C51.0217 26.9581 51.3978 27.3343 51.8618 27.3343H60.5927C61.0567 27.3343 61.4327 26.9581 61.4327 26.4943V23.8839C61.4327 23.4199 61.0565 23.0438 60.5925 23.0438H59.072V16.3309C59.072 13.4671 60.7528 11.5184 63.4487 11.3814C64.7038 11.3176 65.5913 11.5094 66.1357 11.6929C66.2873 11.7441 66.4457 11.6669 66.5127 11.5218C67.1363 10.1708 67.9922 8.97792 69.0412 7.97542C69.1885 7.83459 69.1768 7.59975 69.0078 7.48592L69.0085 7.48575Z" fill="#018EF5"/>
</g>
<defs>
<clipPath id="clip0_286_30497">
<rect width="200" height="34.4" fill="white"/>
</clipPath>
</defs>
</svg>
