<svg id="visual" viewBox="0 0 900 600" width="900" height="600" xmlns="http://www.w3.org/2000/svg" xmlns:xlink="http://www.w3.org/1999/xlink" version="1.1"><rect x="0" y="0" width="900" height="600" fill="#e6504c"></rect><path d="M0 261L129 165L257 169L386 174L514 245L643 246L771 199L900 256L900 601L771 601L643 601L514 601L386 601L257 601L129 601L0 601Z" fill="#a25586"></path><path d="M0 358L129 374L257 270L386 270L514 378L643 327L771 336L900 352L900 601L771 601L643 601L514 601L386 601L257 601L129 601L0 601Z" fill="#61416f"></path><path d="M0 353L129 407L257 469L386 454L514 360L643 381L771 400L900 446L900 601L771 601L643 601L514 601L386 601L257 601L129 601L0 601Z" fill="#292b4b"></path><path d="M0 451L129 483L257 495L386 518L514 509L643 559L771 539L900 474L900 601L771 601L643 601L514 601L386 601L257 601L129 601L0 601Z" fill="#001122"></path></svg>